<svg xmlns="http://www.w3.org/2000/svg" version="1.1" xmlns:xlink="http://www.w3.org/1999/xlink" viewBox="0 0 5.583184522352972 4.259239681626806"><g transform="matrix(1,0,0,1,2.792022214189192,4.041110408261701)"><g transform="matrix(1,0,0,1,0,0)"><path d=" M -2.365205878109956 -1.5335318251116719 L -2.338249928712065 -1.6680648924835892 Q -2.3336453537259487 -1.6910456299706071 -2.3262143951499112 -1.718190923836421 Q -2.3187834365738746 -1.7453362177022347 -2.3058466763082395 -1.7713783321442915 Q -2.2929099160426047 -1.7974204465863481 -2.2729360072122966 -1.82006060556522 Q -2.2529620983819885 -1.8427007645440918 -2.223127729919013 -1.8573893803036947 Q -2.193293361456038 -1.8720779960632978 -2.1518757681259366 -1.876228945559276 Q -2.110458174795835 -1.880379895055254 -2.054921392535542 -1.8692521721721391 L -2.034334481870088 -1.865127240413743 Q -1.9409752358290782 -1.8464211545326443 -1.8876984828512207 -1.8078590350519719 Q -1.834421729873363 -1.7692969155712994 -1.8190246225647742 -1.7119313440018151 L -1.46574342986 -1.7775937889169253 L -1.492027878739082 -1.6464120790951982 L -1.8197347490735174 -1.5990307458988529 L -1.8290398276912945 -1.552590505560504 L -1.5231087598953688 -1.4912921010578275 L -1.547474635863569 -1.3696856985223578 L -2.365205878109956 -1.5335318251116719 M -1.914827733641582 -1.5892010114854518 Q -1.9083045857445837 -1.6217570562587271 -1.9109774198687042 -1.6456979580645936 Q -1.9136502539928248 -1.6696388598704601 -1.927864493705153 -1.686928522352349 Q -1.9420787334174814 -1.7042181848342375 -1.9688394348377112 -1.7160539603346345 Q -1.995600136257941 -1.7278897358350314 -2.036773957588848 -1.7361395993518234 L -2.101407281771086 -1.7490899665002764 Q -2.1330057958157354 -1.7554212571061867 -2.1571376770492825 -1.7542806477205488 Q -2.1812695582828296 -1.7531400383349107 -2.1988452509745353 -1.742469013463861 Q -2.216420943666241 -1.731797988592811 -2.2281110704715066 -1.7107349461532673 Q -2.239801197276772 -1.6896719037137236 -2.246612131110403 -1.6556795628475096 L -2.2503533482866227 -1.6370077136393077 L -1.9185689508178019 -1.57052916227725 L -1.914827733641582 -1.5892010114854518 M -2.152292137217395 -2.2610899075366557 L -2.005405467211282 -2.5330384471836656 L -1.917763283817933 -2.4857005630110796 L -2.0045494048010073 -2.3250232267899396 L -1.7850143277715884 -2.206446467906648 L -1.7179523251937583 -2.3306062277138926 L -1.6303101418004091 -2.2832683435413066 L -1.6973721443782395 -2.159108583734062 L -1.446045294941429 -2.0233602394156165 L -1.3569386894400908 -2.188333761097215 L -1.2692965060467416 -2.140995876924629 L -1.418503660571118 -1.8647511518171607 L -2.152292137217395 -2.2610899075366557 M -1.080181881156666 -2.3371925624227714 Q -1.093847838118616 -2.323238661646407 -1.1120020219630422 -2.3092379700001997 Q -1.1301562058074686 -2.295237278353993 -1.1533686786833268 -2.286190496106493 Q -1.1765811515591853 -2.277143713858993 -1.2045318603285082 -2.2754711778599828 Q -1.2324825690978312 -2.2737986418609726 -1.2655635528521896 -2.283984979695248 Q -1.2986445366065482 -2.294171317529523 -1.337575086170842 -2.318971316375555 Q -1.3765056357351355 -2.343771315221587 -1.421158118219502 -2.3875023774998274 L -1.6322108674620155 -2.5941999765493233 Q -1.6772121974657912 -2.6382726877516127 -1.70229876701075 -2.6765105146902557 Q -1.7273853365557088 -2.714748341628899 -1.7379138920251695 -2.7476133675224466 Q -1.74844244749463 -2.7804783934159945 -1.746658901978671 -2.8081198469403903 Q -1.7448753564627117 -2.835761300464786 -1.7359620325849467 -2.858470440376556 Q -1.7270487087071817 -2.8811795802883258 -1.7135967677794182 -2.899102035965733 Q -1.7001448268516546 -2.91702449164314 -1.6868205188137533 -2.9306295449000954 Q -1.6519723285607804 -2.9662119918798253 -1.618627222960281 -2.98037105262396 Q -1.5852821173597818 -2.9945301133680946 -1.5538357348010075 -2.9920956636831595 Q -1.522389352242233 -2.9896612139982244 -1.4933865597903784 -2.9732172166006663 Q -1.4643837673385236 -2.956773219203108 -1.4385690509022493 -2.9314911988235 Q -1.4193824373347481 -2.912700508000819 -1.4050400967644925 -2.8948951716758016 Q -1.3906977561942369 -2.8770898353507848 -1.3749204332718628 -2.8541201728905543 L -1.446666707322101 -2.7808621938146403 L -1.477016441510694 -2.810585650206882 Q -1.526203941747379 -2.8587581484977562 -1.561214384751528 -2.8718593000794863 Q -1.5962248277556774 -2.8849604516612164 -1.6167237631986024 -2.8640296004966697 Q -1.6290231244643576 -2.8514710897979416 -1.6333637801419465 -2.8372691218372132 Q -1.6377044358195354 -2.8230671538764844 -1.6321677245522075 -2.805342659571487 Q -1.6266310132848798 -2.78761816526649 -1.6106900644958417 -2.765513423009422 Q -1.5947491157068037 -2.7434086807523537 -1.5661436191152562 -2.715393468980356 L -1.294042553976148 -2.4489073082223287 Q -1.266134752423419 -2.4215753942984284 -1.2450834669643704 -2.4060843577194126 Q -1.2240321815053217 -2.390593321140397 -1.2070610291754014 -2.3855909634007917 Q -1.1900898768454808 -2.3805886056611865 -1.1759850899221171 -2.385569651970279 Q -1.1618803029987534 -2.3905506982793714 -1.148555994960852 -2.4041557515363268 Q -1.1400147718596332 -2.4128769395215546 -1.1361685930797165 -2.424829395094525 Q -1.1323224142998 -2.4367818506674954 -1.1348903223544702 -2.451257080896349 Q -1.1374582304091403 -2.465732311125203 -1.14695269868447 -2.4822070447308273 Q -1.1564471669598 -2.498681778336451 -1.1742383904496647 -2.5161058734629376 L -1.2324959261909867 -2.5731612437790794 L -1.151525131191432 -2.655838105879039 L -1.096407223124792 -2.601857575879336 Q -1.024544634126515 -2.531477897525293 -1.0224725760850046 -2.4652046361440583 Q -1.0204005180434943 -2.398931374762824 -1.080181881156666 -2.3371925624227714 M -1.3158117672435632 -3.226340693699526 L -1.2086823192781653 -3.2935466315572848 L -0.7654864047567255 -2.5870713530827687 L -0.8726158527221234 -2.5198654152250093 L -1.3158117672435632 -3.226340693699526 M -0.9014402932133956 -3.4518409972017414 L -0.7812940217580198 -3.491315421327789 Q -0.758563646077273 -3.498783555621906 -0.7307405117579422 -3.505612110022773 Q -0.7029173774386113 -3.51244066442364 -0.6732653122717416 -3.513702596208814 Q -0.6436132471048718 -3.514964527993988 -0.6131495319905722 -3.5074988248487635 Q -0.5826858168762725 -3.5000331217035385 -0.5542865998395948 -3.479297094418421 Q -0.525887382802917 -3.458561067133303 -0.5006461501959507 -3.421625646002574 Q -0.4754049175889845 -3.3846902248718447 -0.45620114368982634 -3.3262406874070676 L -0.44705648945213194 -3.2984075743286017 Q -0.4261761956093965 -3.2348552994661057 -0.4222174350955421 -3.1860448344705024 Q -0.41825867458168775 -3.1372343694748994 -0.42621487296924565 -3.1004419772250986 Q -0.43417107135680355 -3.0636495849752983 -0.45196472392402354 -3.0372450147023002 Q -0.46975837649124347 -3.010840444429302 -0.4923795825576117 -2.9928719922909592 Q -0.51500078862398 -2.9749035401526163 -0.5402196325637847 -2.9632770701619537 Q -0.5654384765035895 -2.951650600171291 -0.5886327374023106 -2.9440300549732124 L -0.6002298678516712 -2.9402197823741734 L -0.5209761977916534 -2.6989994690274726 L -0.6411224692470291 -2.659525044901425 L -0.9014402932133956 -3.4518409972017414 M -0.6231574317707026 -3.030339315540814 Q -0.5906854665124929 -3.041008078818124 -0.5715433995809328 -3.0578334491767554 Q -0.5524013326493726 -3.0746588195353866 -0.54581047825943 -3.0991815372801788 Q -0.5392196238694873 -3.123704255024971 -0.5438612055661748 -3.157385528755739 Q -0.5485027872628623 -3.1910668024865068 -0.5631342340431733 -3.2355997834120513 L -0.5866055132532555 -3.3070381069801122 Q -0.598188741954335 -3.342293383546169 -0.6117502845219209 -3.366362493200172 Q -0.6253118270895069 -3.390431602854175 -0.6440193483443946 -3.4027877599383496 Q -0.6627268695992823 -3.415143917022524 -0.6876605508813821 -3.415946184946921 Q -0.712594232163482 -3.416748452871318 -0.746457853075615 -3.405622456882123 L -0.7524883609092825 -3.4036411151306227 L -0.62918793960437 -3.028357973789314 L -0.6231574317707026 -3.030339315540814 M -0.2035152602272067 -3.6180041956255597 L 0.1054238334217237 -3.6274030496516305 L 0.1084528479893673 -3.527839739850079 L -0.07407988664680962 -3.522286546476066 L -0.066492502117075 -3.2728902165319846 L 0.07455552010178898 -3.2771813205028133 L 0.07758453466943252 -3.1776180107012624 L -0.06346348754943143 -3.1733269067304337 L -0.05477734283339472 -2.88781447421128 L 0.13263594620481897 -2.89351614869155 L 0.13566496077246257 -2.7939528388899992 L -0.17815468727850467 -2.784405503757672 L -0.2035152602272067 -3.6180041956255597 M 0.4725368320908648 -2.9029284026390707 Q 0.4827782227242573 -2.927754399490688 0.4943708344331348 -2.947533305208563 Q 0.5059634461420123 -2.967312210926438 0.5218865925651799 -2.989266133685587 L 0.6126143265138158 -2.951838506098098 L 0.5971591370125142 -2.9143738199402036 Q 0.5843108469451672 -2.8832284784354476 0.5782786154846025 -2.857722484735093 Q 0.5722463840240377 -2.8322164910347376 0.574251769123814 -2.8121100182631893 Q 0.5762571542235905 -2.792003545491641 0.5874822300592228 -2.777601252085456 Q 0.5987073058948553 -2.763198958679271 0.6199222486589642 -2.754447224865281 Q 0.6533244989684122 -2.7406678992858073 0.6784697752932387 -2.751686783609229 Q 0.703615051618065 -2.76270566793265 0.7181392056072399 -2.797913445285852 Q 0.7255874897042527 -2.8159687157233915 0.7293428279503391 -2.83211414377817 Q 0.7330981661964255 -2.8482595718329486 0.7331493468037915 -2.8656689658266608 Q 0.7332005274111575 -2.8830783598203724 0.7296153061480966 -2.9038365574504095 Q 0.7260300848850354 -2.9245947550804465 0.7181596611003893 -2.95161039000999 L 0.6560590655255251 -3.1467798529260804 Q 0.6406906321610834 -3.201713886307044 0.6404971075612497 -3.25118015794938 Q 0.640303582961416 -3.300646429591716 0.6600415358184998 -3.3484928962511957 Q 0.6758691395246519 -3.386860345930967 0.7010514604617194 -3.4139739627433285 Q 0.7262337813987869 -3.44108757955569 0.7583925352206152 -3.4550233851227565 Q 0.7905512890424435 -3.4689591906898225 0.8290347508905438 -3.4681373488483085 Q 0.8675182127386443 -3.4673155070067945 0.9094967165059236 -3.4499982464812398 Q 0.9605028554919726 -3.4289568439071787 0.9886235511652182 -3.400453991324036 Q 1.0167442468384635 -3.3719511387408927 1.027373656754579 -3.340099967562952 Q 1.0380030666706943 -3.308248796385011 1.0343432711416232 -3.2756898414096103 Q 1.0306834756125522 -3.2431308864342094 1.0185800139549064 -3.213791071973208 Q 1.008338623321514 -3.188965075121591 0.9958432480907595 -3.1695585836085667 Q 0.9833478728600051 -3.150152092095542 0.9679550757538637 -3.1269229916096655 L 0.8776787235661665 -3.1641644120947294 L 0.8927614988626171 -3.2007263347307466 Q 0.9180856647924607 -3.262114254218381 0.9139817910416952 -3.302101508881009 Q 0.9098779172909299 -3.3420887635436363 0.8701563223283431 -3.3584749885570644 Q 0.8372054537798335 -3.3720681070341127 0.8134143227378225 -3.3604906014034155 Q 0.7896231916958116 -3.3489130957727182 0.7769611087308899 -3.318219136028901 Q 0.7702576530435785 -3.3019693926351157 0.7673402467584058 -3.2878551825045603 Q 0.7644228404732334 -3.273740972374005 0.7646002749536671 -3.260726944655546 Q 0.7647777094341008 -3.247712916937087 0.7672656724923959 -3.2345380298991224 Q 0.7697536355506909 -3.2213631428611573 0.7736747114478891 -3.206540663891614 L 0.8417612362075577 -2.986189365079984 Q 0.8588503806450045 -2.9226225342606895 0.860369778537404 -2.8699683183015345 Q 0.8618891764298036 -2.8173141023423796 0.8414063951630184 -2.767662108639146 Q 0.8244615488423144 -2.7265863683937437 0.7980040501785193 -2.6989424022643558 Q 0.7715465515147242 -2.671298436134968 0.7381267559612931 -2.658146942755647 Q 0.704706960407862 -2.644995449376326 0.6657326330207792 -2.6465479836324164 Q 0.6267583056336965 -2.648100517888507 0.5843284201054787 -2.665603985516487 Q 0.5319681358366142 -2.6872040093978242 0.5032098513000048 -2.715441687322454 Q 0.47445156676339545 -2.743679365247084 0.4634102588643856 -2.775172258215299 Q 0.45236895096537566 -2.8066651511835135 0.45612185004565936 -2.8394497970393835 Q 0.45987474912594306 -2.8722344428952535 0.4725368320908648 -2.9029284026390707 M 1.414299585575212 -3.166784151974184 L 1.5093809667309963 -3.0834001747230335 L 1.279189678180523 -2.8209168252003085 L 1.3918923191644061 -2.7220794467597558 L 1.6220836077148797 -2.984562796282481 L 1.717164988870664 -2.90117881903133 L 1.167281463214428 -2.274155656814807 L 1.0722000820586437 -2.357539634065957 L 1.3262153641094458 -2.647189092490335 L 1.2135127231255627 -2.7460264709308877 L 0.9594974410747604 -2.4563770125065103 L 0.8644160599189762 -2.539760989757661 L 1.414299585575212 -3.166784151974184 M 1.3405312059020522 -1.9934533443102738 Q 1.330789232824172 -2.010942643667869 1.3221566898506625 -2.032962380111059 Q 1.313524146877153 -2.0549821165542492 1.3113144530198146 -2.080020616662602 Q 1.3091047591624765 -2.105059116770955 1.315191642001004 -2.132762787150315 Q 1.3212785248395313 -2.160466457529676 1.3401924214595193 -2.1897258680756737 Q 1.3591063180795075 -2.218985278621671 1.3938117017141405 -2.2494954858620573 Q 1.4285170853487736 -2.2800056931024435 1.4831178248066321 -2.310419657833387 L 1.7411916324004157 -2.454173163006986 Q 1.7962189401352888 -2.48482473683739 1.8401209240210574 -2.4978213197592276 Q 1.884022907906826 -2.5108179026810653 1.9187621346018902 -2.5111651499788525 Q 1.9535013612969545 -2.5115123972766398 1.9796203833730233 -2.5017482139065463 Q 2.0057394054490922 -2.491984030536453 2.0253439190752487 -2.476355414817743 Q 2.044948432701405 -2.460726799099033 2.0586754700381356 -2.4421037446761136 Q 2.072402507374866 -2.4234806902531942 2.0819068713532856 -2.4064179591726136 Q 2.090936017132784 -2.3902083646460617 2.099638714734118 -2.369066089717854 Q 2.108341412335451 -2.347923814789646 2.111498722335595 -2.3236926215684517 Q 2.1146560323357395 -2.2994614283472576 2.1095410906009713 -2.272019692028311 Q 2.104426148866203 -2.2445779557093637 2.085844340934453 -2.2152240655745894 Q 2.067262533002702 -2.1858701754398147 2.032675953917799 -2.1551466840609215 Q 1.9980893748328965 -2.124423192682028 1.9422089305439945 -2.093296400652703 L 1.6841351229502106 -1.9495428954791039 Q 1.6299609517693667 -1.919366539847621 1.585940163333868 -1.9065832410642907 Q 1.541919374898369 -1.8937999422809602 1.5067535799262903 -1.8932150858837125 Q 1.4715877849542114 -1.8926302294864648 1.4445913013631606 -1.9024645674843816 Q 1.4175948177721096 -1.9122989054822987 1.3973747766913844 -1.9270257347250732 Q 1.3771547356106593 -1.9417525639678477 1.3632387390963747 -1.9597114410142922 Q 1.3493227425820904 -1.9776703180607365 1.3405312059020522 -1.9934533443102738 M 1.4237120199198832 -2.0397871187050702 Q 1.432741165699382 -2.0235775241785183 1.4450584126351949 -2.014509246576591 Q 1.457375659571008 -2.0054409689746637 1.4754216127754916 -2.005152947032631 Q 1.4934675659799752 -2.0048649250905983 1.5181196869681122 -2.0132870041806363 Q 1.5427718079562491 -2.0217090832706743 1.5768972701174107 -2.040717811227514 L 1.9083408213576916 -2.2253400815083184 Q 1.943319420072882 -2.244824027664079 1.964523388863806 -2.261944926766044 Q 1.9857273576547299 -2.279065825868009 1.995621626594697 -2.2949172438247043 Q 2.005515895534664 -2.3107686617813994 2.0047159920782436 -2.32625238506876 Q 2.003916088621823 -2.341736108356121 1.994886942842324 -2.3579457028826725 Q 1.9856201879633646 -2.3745818656862387 1.972757568200807 -2.383625818327213 Q 1.9598949484382493 -2.3926697709681872 1.9410903382685136 -2.392814663399536 Q 1.9222857280987777 -2.3929595558308856 1.8965671864181046 -2.383943453992196 Q 1.8708486447374313 -2.3749273521535073 1.8358700460222408 -2.3554434059977467 L 1.5044264947819599 -2.1708211357169422 Q 1.4703010326207981 -2.1518124077601026 1.4501634845224107 -2.1352855314067885 Q 1.4300259364240233 -2.1187586550534747 1.420890324449308 -2.103050366607463 Q 1.4117547124745928 -2.0873420781614516 1.4130999887577584 -2.071882679835044 Q 1.414445265040924 -2.0564232815086365 1.4237120199198832 -2.0397871187050702 M 2.3023293260810913 -1.8556427170814556 L 2.325877128183019 -1.7313895170386384 Q 2.3303321177698706 -1.7078821548683758 2.3334919904446583 -1.679408111192841 Q 2.336651863119447 -1.6509340675173063 2.3340548307729456 -1.6213690059837673 Q 2.3314577984264453 -1.5918039444502283 2.32010160697123 -1.562566783547529 Q 2.308745415516015 -1.5333296226448299 2.2844990660402473 -1.5078617430125476 Q 2.2602527165644797 -1.4823938633802651 2.2203538260232873 -1.462159642584661 Q 2.1804549354820955 -1.4419254217890567 2.1200074327585625 -1.4304697342800106 L 2.0912229076521185 -1.4250146449899885 Q 2.0254982419924046 -1.412558857777772 1.976586812055841 -1.4149682766815102 Q 1.9276753821192771 -1.4173776955852486 1.8922267254211207 -1.4300415796079962 Q 1.856778068722964 -1.442705463630744 1.8329061003447324 -1.4637754548204271 Q 1.8090341319665009 -1.4848454460101106 1.7941534616285288 -1.5096073095594804 Q 1.7792727912905568 -1.5343691731088505 1.7710175919892548 -1.5608836329109996 Q 1.7627623926879528 -1.5873980927131488 1.7582164849462676 -1.611385196968519 L 1.7559435310754252 -1.623378749096204 L 1.506477646819576 -1.5761013085826805 L 1.482929844717648 -1.7003545086254976 L 2.3023293260810913 -1.8556427170814556 M 1.84827646325867 -1.6344165514082105 Q 1.8546407340970288 -1.6008346054506923 1.8688395182737478 -1.579670807539628 Q 1.8830383024504673 -1.5585070096285634 1.9064982505653998 -1.5487892999382684 Q 1.9299581986803322 -1.5390715902479732 1.9639570084456104 -1.5393027077902393 Q 1.9979558182108887 -1.539533825332505 2.0440110583811992 -1.5482619681965402 L 2.1178913394877394 -1.5622633640409298 Q 2.154351737955902 -1.569173143808291 2.179977323976192 -1.5794962643377426 Q 2.2056029099964825 -1.5898193848671944 2.2202824576475884 -1.6067650878667685 Q 2.2349620052986943 -1.6237107908663426 2.2389934203560564 -1.6483294786610876 Q 2.243024835413418 -1.6729481664558328 2.2363878101105583 -1.7079693386686732 L 2.23520587409772 -1.7142059857750693 L 1.8470945272458317 -1.640653198514607 L 1.84827646325867 -1.6344165514082105" fill="#574848" fill-rule="nonzero"></path></g><g transform="matrix(1,0,0,1,0,0)"><g clip-path="url(#SvgjsClipPath1001)"><g clip-path="url(#SvgjsClipPath10005b8bb735-54e5-490c-9118-ca4b46f0e90c)"><path d=" M -0.5938627215425448 -1.3640191923066198 C -0.6467985425275494 -1.3770278470564508 -0.6941018511020476 -1.401037043435845 -0.7344992096775769 -1.4337447981118128 C -0.7747986115155321 -1.4665701008728695 -0.8081920633545182 -1.5079372311503816 -0.8320641203013086 -1.556827438873579 C -0.8561516820707624 -1.6058939687244096 -0.870032151785002 -1.6619839966592982 -0.8750867194438219 -1.7266354434581563 C -0.9114874431263306 -1.6722106800620264 -0.9216455568127575 -1.6001928865976014 -0.907314486105677 -1.5322109107212258 C -0.8929638240510819 -1.4639938386746727 -0.8534088934186894 -1.4000280890388326 -0.7979164015830023 -1.3554577734426496 C -0.7427667583288246 -1.3104956308961708 -0.671718736566382 -1.2851444272120125 -0.6021204745200353 -1.285526458488551 C -0.5329434264452565 -1.2857909416800009 -0.46432473177464983 -1.310378082811082 -0.41874546178145455 -1.3574169081941299 C -0.4830148773037747 -1.3485714147911954 -0.5405938476497884 -1.3506872803227947 -0.5938627215425448 -1.3640191923066198 Z" fill="#c5b3b3" transform="matrix(1,0,0,1,0,0)" fill-rule="nonzero"></path></g><g clip-path="url(#SvgjsClipPath10005b8bb735-54e5-490c-9118-ca4b46f0e90c)"><path d=" M 0.8267646607985533 -1.3554773647901643 C 0.8822669483079977 -1.4000182933650749 0.9218218789403905 -1.4639938386746727 0.9361235626261977 -1.5322109107212256 C 0.9504742246807931 -1.6002026822713584 0.9403063153206095 -1.672181293040754 0.9039839570281594 -1.7266354434581563 C 0.8988510239792806 -1.6620035880068125 0.8849705542650408 -1.6058939687244094 0.8608731968218297 -1.5568274388735786 C 0.8370305268963112 -1.5079274354766241 0.8036272793835679 -1.466570100872869 0.7633474688931277 -1.4337447981118125 C 0.7229599059913554 -1.4010468391096023 0.6756565974168576 -1.3770278470564503 0.6227109807580951 -1.3640191923066194 C 0.5694323111915811 -1.3506970759965515 0.5118925235405973 -1.348571414791195 0.44761331234451984 -1.3574169081941299 C 0.4931729909902005 -1.3103780828110816 0.561772094313292 -1.2857909416800006 0.6309687337355854 -1.2855264584885506 C 0.7005865871294479 -1.2851444272120125 0.7716052218706189 -1.3104858352224136 0.8267646607985533 -1.3554773647901643 Z" fill="#c5b3b3" transform="matrix(1,0,0,1,0,0)" fill-rule="nonzero"></path></g><g clip-path="url(#SvgjsClipPath10005b8bb735-54e5-490c-9118-ca4b46f0e90c)"><path d=" M -0.22826858556875762 -1.4216471410214204 C -0.21144941372729742 -1.406365889959872 -0.1930433427371373 -1.3926127640044785 -0.17329526444221321 -1.38087754684311 C -0.1536451428848633 -1.3689072335115635 -0.13263342267523404 -1.3589842159953147 -0.11083804856501289 -1.3511280856418777 C -0.06720811764954071 -1.335396233587489 -0.020228066309037063 -1.3282355960708272 0.026164244606022402 -1.330057591389704 C 0.07265451225865593 -1.33173265160222 0.11898804913117123 -1.3423805489765168 0.16129556408939427 -1.3614135430871501 C 0.1824346280578697 -1.3708271855680145 0.20259412465060467 -1.3823664892542349 0.22130386152724335 -1.3957081969118175 C 0.24012135081521446 -1.4088637867680094 0.257361736628243 -1.4240176940707117 0.2730446103138451 -1.440435243288119 C 0.30423403555741557 -1.4734172768292941 0.3285566934970461 -1.512080801149763 0.3436812137784766 -1.5533695660372155 C 0.35868818597481744 -1.5946093525558815 0.3651631263284607 -1.6382392834713535 0.35995182788952285 -1.6800472190679485 C 0.3237078349871323 -1.6046891008522488 0.2746804878313316 -1.5461501544780096 0.2157791015280679 -1.5056548391649065 C 0.15716178976376982 -1.4650125887454424 0.0901299942418623 -1.4431584405926767 0.022108835670457294 -1.4407389091745981 C -0.04602007531227925 -1.4382899907352473 -0.11432530842264876 -1.455030797186649 -0.17575397855532182 -1.4911670376777075 C -0.23748631457447467 -1.5272249127787074 -0.29075518846723114 -1.5818651809975004 -0.3326904678226724 -1.6542552100647068 C -0.3364422108717571 -1.5698654806446823 -0.2954864988920556 -1.4824195010123473 -0.22826858556875762 -1.4216471410214204 Z" fill="#c5b3b3" transform="matrix(1,0,0,1,0,0)" fill-rule="nonzero"></path></g><g clip-path="url(#SvgjsClipPath10005b8bb735-54e5-490c-9118-ca4b46f0e90c)"><path d=" M 0.6169511245887429 -2.111321347585122 C 0.5555322501298274 -2.111321347585122 0.495886392621002 -2.1003893756718606 0.4392478069556984 -2.0788290977318167 C 0.4224188394404802 -2.1070504338268945 0.4023475039115625 -2.1335869140356984 0.3795627667518431 -2.1577038628264242 C 0.33459082853160704 -2.205516546436307 0.27869671407186614 -2.2435629433100597 0.21750314010937166 -2.2693549523133014 C 0.1869014552912447 -2.282285241673073 0.15484021508326573 -2.291747862522724 0.12225000849238676 -2.2984970817415746 C 0.08967939324902274 -2.304815291315099 0.056090027934888154 -2.308038067981285 0.023088403046198414 -2.3082241857826755 C -0.010118930991396935 -2.307920519896196 -0.043424221766566795 -2.3048740653576436 -0.0760927937475051 -2.298408920677758 C -0.10862422629584012 -2.291630314437635 -0.14072464919884875 -2.2822558546518006 -0.17126755997443088 -2.2692374042282126 C -0.23250031663195547 -2.2434845779200003 -0.2882964743541221 -2.2053304286349165 -0.3333075952693877 -2.157586314741335 C -0.36031426781854714 -2.1289633560222043 -0.383471240581047 -2.0969412985092544 -0.4019556769612662 -2.0627446014221613 C -0.4687327849654813 -2.0944336060273594 -0.5426019607700555 -2.1113115519113643 -0.6169413289149855 -2.1113115519113643 C -0.8935221774552536 -2.1113115519113643 -1.1185190079890386 -1.886304925703822 -1.1185190079890386 -1.6097534641848266 C -1.1185190079890386 -1.3331726156445582 -0.8935221774552536 -1.1081757851107732 -0.6169413289149855 -1.1081757851107732 L -0.6154229994825879 -1.1081757851107732 L -0.6154229994825879 -0.416865701029586 L -0.6154229994825879 -0.31946731685972996 L -0.6154229994825879 -0.3060864265071177 C -0.6154229994825879 -0.3060864265071177 -0.41683530539876124 -0.18749999999999956 -0.0024391227655926606 -0.18749999999999956 C 0.4119668555413327 -0.18749999999999956 0.612298179553977 -0.3060864265071177 0.612298179553977 -0.3060864265071177 L 0.612298179553977 -0.31946731685972996 L 0.6123471579227642 -0.31946731685972996 L 0.612298179553977 -1.1081953764582888 C 0.6138556916814042 -1.1081659894370164 0.6154034081350737 -1.1081659894370164 0.6169511245887436 -1.1081659894370164 C 0.8935025861077392 -1.1081659894370164 1.118519007989039 -1.3331628199708014 1.118519007989039 -1.6097436685110695 C 1.1185092123152807 -1.8863147213775795 0.8935025861077384 -2.111321347585122 0.6169511245887429 -2.111321347585122 Z M 0.6169511245887429 -1.2189648553069992 C 0.5993776858679625 -1.2189648553069992 0.5816279250195486 -1.2201599275054025 0.5643189694902178 -1.222510889207179 L 0.5015287007052656 -1.2309547599860602 L 0.501558087726538 -0.3736667797594395 C 0.3997712417133652 -0.3411549385586192 0.22972814095860983 -0.30218774835167084 -0.001528125106155187 -0.30218774835167084 C -0.2327941868446778 -0.30218774835167084 -0.40285687894694777 -0.3411549385586192 -0.5046339292863633 -0.37364718841192435 L -0.5046339292863633 -1.2300927406954083 L -0.5670519624685342 -1.2221386536043972 C -0.5834695116859411 -1.2200129923990408 -0.6002592965061294 -1.2189648553069987 -0.6169217375674716 -1.2189648553069987 C -0.8324069688828184 -1.2189648553069987 -1.0077201421190565 -1.3942780285432361 -1.0077201421190565 -1.6097632598585836 C -1.0077201421190565 -1.825219104152658 -0.8324167645565761 -2.000561664410168 -0.6169217375674716 -2.000561664410168 C -0.5550228750944435 -2.000561664410168 -0.4959843493585768 -1.9864069158307212 -0.4412461244022099 -1.9588125028561174 C -0.4528637934784897 -1.9080023430764688 -0.454578036386035 -1.8557816062757548 -0.44462563184851367 -1.8066758937298943 C -0.43260634014818067 -1.8664980733663534 -0.41216276901648063 -1.9215497598829572 -0.38285411313433215 -1.9699501839182842 C -0.3536923923585442 -2.0183995863223987 -0.31663535853428915 -2.0602467046140234 -0.2740829517321314 -2.0941005531196075 C -0.18916425592920683 -2.1622882381448885 -0.08320445289538059 -2.1977191901254143 0.023107994393712028 -2.197493889628994 C 0.12938125898777497 -2.197582050692811 0.23528228797905681 -2.1621413030385273 0.3202107794557387 -2.093992800708276 C 0.36268482086783727 -2.0601291565289346 0.3997712417133643 -2.01828203823731 0.42890357546788027 -1.9698816142019826 C 0.4583003924138458 -1.9215301685354427 0.4787145765242735 -1.8664980733663536 0.49082202928842356 -1.8066758937298943 C 0.5020086887193775 -1.8616100321614093 0.4986683639681033 -1.920501622790915 0.48299528595625896 -1.9768757252647682 C 0.5257631975810795 -1.9925194162553401 0.5706959531062858 -2.0005714600839255 0.6169707159362572 -2.0005714600839255 C 0.8324559472516038 -2.0005714600839255 1.007749529140327 -1.8252288998264152 1.007749529140327 -1.6097730555323408 C 1.0077299377928124 -1.394278028543237 0.8324363559040893 -1.2189648553069992 0.6169511245887429 -1.2189648553069992 Z" fill="#b9625d" transform="matrix(1,0,0,1,0,0)" fill-rule="nonzero"></path></g><g clip-path="url(#SvgjsClipPath10005b8bb735-54e5-490c-9118-ca4b46f0e90c)"><path d=" M 0.3952554361112026 -0.9737203671166625 L -0.3910530920692774 -0.9737203671166625 C -0.4028862659682205 -0.9737203671166625 -0.41246643490295964 -0.9833005360514024 -0.41246643490295964 -0.9951435056241027 C -0.41246643490295964 -1.0069570881755303 -0.40288626596821964 -1.0165568484577854 -0.3910530920692774 -1.0165568484577854 L 0.3952554361112026 -1.0165568484577854 C 0.4070886100101456 -1.0165568484577854 0.4166687789448853 -1.0069570881755305 0.4166687789448853 -0.9951435056241027 C 0.4166687789448853 -0.9833103317251597 0.4070886100101456 -0.9737203671166625 0.3952554361112026 -0.9737203671166625 Z" fill="#574848" transform="matrix(1,0,0,1,0,0)" fill-rule="nonzero"></path></g><g clip-path="url(#SvgjsClipPath10005b8bb735-54e5-490c-9118-ca4b46f0e90c)"><path d=" M 0.0020962741840837573 -0.8314284101166294 C -0.044452767511094615 -0.8314284101166294 -0.37749587958903197 -0.8408420525974938 -0.39166042384223676 -0.8412534708953041 C -0.4034740063936646 -0.8415767281292985 -0.41278969213695427 -0.8514409716030031 -0.4124566392292025 -0.8632643498281884 C -0.4121333819952083 -0.8748820189044684 -0.4026021914292558 -0.8840703608889122 -0.39106288774303466 -0.8840703608889122 C -0.3908767699416438 -0.8840703608889122 -0.390661265118981 -0.8840703608889122 -0.39045555597007575 -0.884050769541397 C -0.3869976831337121 -0.8839430171300657 -0.043855231411892515 -0.8742453001102368 0.002086478510326728 -0.8742453001102368 C 0.04802818843254575 -0.8742453001102368 0.39118043582812323 -0.8839430171300657 0.3946383086644867 -0.884050769541397 C 0.4066771917123344 -0.8845209618817527 0.41630633901586145 -0.8750877280533735 0.4166491875973708 -0.863254554154431 C 0.4169724448313652 -0.8514409716030034 0.40766655476183256 -0.8415767281292987 0.3958529722104047 -0.8412436752215471 C 0.38170801930471465 -0.8408420525974938 0.04864531587926213 -0.8314284101166294 0.0020962741840837573 -0.8314284101166294 Z" fill="#574848" transform="matrix(1,0,0,1,0,0)" fill-rule="nonzero"></path></g><g clip-path="url(#SvgjsClipPath10005b8bb735-54e5-490c-9118-ca4b46f0e90c)"><path d=" M 0.0020962741840837573 -0.6891266574428392 C -0.09109976594384639 -0.6891266574428392 -0.3801896898723178 -0.707993125099597 -0.39245387341658644 -0.7087963703477038 C -0.40424786462049955 -0.7095800242482964 -0.41319131476100834 -0.7197675249559952 -0.4124174565341734 -0.7315713118336655 C -0.41164359830733843 -0.7433750987113359 -0.40153446298969897 -0.7521716137454837 -0.38965231072196926 -0.7515446906250096 C -0.3866646302259611 -0.7513389814761045 -0.08969898459653813 -0.7319435474364464 0.0020962741840837573 -0.7319435474364464 C 0.09389153296470543 -0.7319435474364464 0.39086697426788586 -0.7513291858023468 0.39386445043765117 -0.7515446906250096 C 0.405854355116712 -0.7522793661568146 0.41585573802302034 -0.7433848943850929 0.4166295962498554 -0.7315713118336655 C 0.4174132501504475 -0.7197675249559949 0.40846980000993827 -0.7095800242482959 0.39666601313226835 -0.7087963703477038 C 0.3844018295880005 -0.707993125099597 0.0952923143120139 -0.6891266574428392 0.0020962741840837573 -0.6891266574428392 Z" fill="#574848" transform="matrix(1,0,0,1,0,0)" fill-rule="nonzero"></path></g><g clip-path="url(#SvgjsClipPath10005b8bb735-54e5-490c-9118-ca4b46f0e90c)"><path d=" M 0.0020962741840837573 -0.5468151090952911 C -0.13788390380920235 -0.5468151090952911 -0.383147983347054 -0.5752029716442448 -0.3935313975299001 -0.5764176351901622 C -0.40526661469126857 -0.5777792338424412 -0.4136810984488778 -0.5884173355429809 -0.4123097041228412 -0.6001525527043492 C -0.4109383097968049 -0.6119073612132324 -0.40026102540123576 -0.6203610276658709 -0.3885649909348968 -0.6189504506448051 C -0.3860377071054871 -0.6186467847583257 -0.13538600700106407 -0.5896319990888987 0.0021060698578414527 -0.5896319990888987 C 0.13960794239050456 -0.5896319990888987 0.3902792338424421 -0.6186467847583257 0.3927869263243371 -0.6189504506448051 C 0.4044535737694037 -0.6203610276658709 0.4151602451862453 -0.6119073612132324 0.41653163951228156 -0.6001525527043492 C 0.4178932381645606 -0.5884173355429809 0.4094787544069509 -0.5777694381686838 0.39775333291934034 -0.5764176351901622 C 0.38735032738897845 -0.5752029716442448 0.14207645217736986 -0.5468151090952911 0.0020962741840837573 -0.5468151090952911 Z" fill="#574848" transform="matrix(1,0,0,1,0,0)" fill-rule="nonzero"></path></g><g clip-path="url(#SvgjsClipPath10005b8bb735-54e5-490c-9118-ca4b46f0e90c)"><path d=" M 0.0020962741840837573 -0.40451335642150066 C -0.18490313784473544 -0.40451335642150066 -0.3929828397994859 -0.4437646211674138 -0.39505952263605526 -0.44417603946522455 C -0.40667719171233474 -0.4463898617343973 -0.41428843022183715 -0.45759611251286625 -0.4120844036264212 -0.4692039859153885 C -0.4098803770310052 -0.48082165499166796 -0.3987426959688385 -0.48845248484868464 -0.38704666150249967 -0.48622886690575484 C -0.3849993656872026 -0.48583703995545835 -0.18076936351911188 -0.44734004208886513 0.0020962741840837573 -0.44734004208886513 C 0.18495211621352148 -0.44734004208886513 0.38921150540288485 -0.48583703995545835 0.39125880121818235 -0.48622886690575484 C 0.40289606164197656 -0.4884426891749276 0.41407292539917373 -0.48081185931791115 0.41629654334210353 -0.4692039859153885 C 0.4185005699375195 -0.4575863168391092 0.41087953575425984 -0.44638006606064007 0.39926186667798036 -0.44417603946522455 C 0.39719497951516836 -0.4437646211674138 0.1890956862129034 -0.40451335642150066 0.0020962741840837573 -0.40451335642150066 Z" fill="#574848" transform="matrix(1,0,0,1,0,0)" fill-rule="nonzero"></path></g><g clip-path="url(#SvgjsClipPath10005b8bb735-54e5-490c-9118-ca4b46f0e90c)"><path d=" M 0.3952554361112026 -1.1206260864564324 L -0.20444550699075392 -1.1206260864564324 C -0.21626888521593934 -1.1206260864564324 -0.22584905415067935 -1.13021605106493 -0.22584905415067935 -1.142049224963872 C -0.22584905415067935 -1.1538628075153 -0.21626888521593934 -1.1634625677975547 -0.20444550699075392 -1.1634625677975547 L 0.3952554361112026 -1.1634625677975547 C 0.4070886100101456 -1.1634625677975547 0.4166687789448853 -1.1538628075153003 0.4166687789448853 -1.142049224963872 C 0.4166687789448853 -1.13021605106493 0.4070886100101456 -1.1206260864564324 0.3952554361112026 -1.1206260864564324 Z" fill="#574848" transform="matrix(1,0,0,1,0,0)" fill-rule="nonzero"></path></g></g></g></g><defs><clipPath id="SvgjsClipPath1001"><path d=" M -1.1185190079890386 -2.3082241857826755 h 2.237038015978077 v 2.1207241857826755 h -2.237038015978077 Z"></path></clipPath><clipPath id="SvgjsClipPath10005b8bb735-54e5-490c-9118-ca4b46f0e90c"><path d=" M -1.1185190079890386 -2.3082241857826755 L 1.1185190079890386 -2.3082241857826755 L 1.1185190079890386 -0.1875 L -1.1185190079890386 -0.1875 Z"></path></clipPath></defs></svg>